<?xml version="1.0" standalone="no"?>
<!DOCTYPE svg PUBLIC "-//W3C//DTD SVG 20010904//EN"
 "http://www.w3.org/TR/2001/REC-SVG-20010904/DTD/svg10.dtd">
<svg version="1.0" xmlns="http://www.w3.org/2000/svg"
 width="562.000000pt" height="329.000000pt" viewBox="0 0 562.000000 329.000000"
 preserveAspectRatio="xMidYMid meet">

<g transform="translate(0.000000,329.000000) scale(0.100000,-0.100000)"
fill="#000000" stroke="none">
<path d="M800 3040 l0 -60 1960 0 1960 0 0 -1269 c0 -1201 -1 -1270 -17 -1275
-134 -37 -495 -41 -717 -7 -560 86 -1127 334 -1642 718 -259 194 -415 345
-662 642 -53 64 -99 118 -102 121 -3 3 -45 52 -94 110 -181 213 -449 464 -595
554 -69 44 -170 92 -246 117 -55 18 -93 23 -180 23 -60 1 -122 -2 -137 -7 -31
-8 -34 -24 -22 -123 l6 -51 37 8 c102 24 278 -1 398 -55 l53 -25 0 -692 c0
-713 -4 -802 -39 -834 -10 -8 -46 -20 -80 -26 -57 -10 -83 -28 -43 -30 107 -5
493 -3 511 3 33 12 25 16 -53 27 -78 11 -106 31 -125 89 -12 34 -21 271 -47
1140 -4 145 -3 242 2 242 19 0 193 -148 318 -269 128 -125 244 -254 426 -471
155 -184 176 -208 334 -365 329 -327 714 -585 1161 -777 554 -239 1132 -319
1598 -221 l77 16 0 1403 0 1404 -2020 0 -2020 0 0 -60z"/>
<path d="M1874 2541 c-12 -12 1 -19 44 -24 70 -8 99 -23 119 -59 16 -30 18
-74 21 -515 l3 -482 42 -38 c24 -21 63 -55 87 -77 l45 -38 5 568 5 568 25 14
c42 22 393 10 495 -17 411 -108 648 -499 570 -941 -38 -214 -113 -344 -257
-441 -56 -38 -176 -92 -230 -103 -91 -19 -88 -14 -31 -47 l52 -30 63 16 c90
23 233 95 305 155 125 101 225 261 275 435 20 69 23 103 23 250 0 151 -3 178
-24 245 -99 315 -317 489 -691 551 -70 12 -935 21 -946 10z"/>
<path d="M3935 2534 c-98 -21 -172 -59 -230 -119 -70 -72 -99 -150 -99 -264 0
-193 70 -302 340 -527 154 -128 224 -202 260 -272 26 -51 29 -67 29 -152 0
-81 -4 -102 -24 -142 -62 -121 -208 -187 -353 -158 -167 32 -249 111 -266 255
-15 140 -40 58 -41 -141 -1 -130 -1 -131 99 -164 83 -28 252 -38 353 -20 135
23 264 105 323 205 91 157 86 372 -12 518 -42 62 -156 172 -269 262 -121 95
-241 209 -263 250 -64 117 -51 247 31 328 54 54 120 77 216 77 176 0 291 -88
291 -222 0 -18 5 -28 15 -28 12 0 15 16 15 84 0 45 3 110 6 142 l6 60 -98 18
c-136 25 -244 29 -329 10z"/>
<path d="M807 733 c-4 -3 -7 -107 -7 -230 l0 -223 1303 1 c1110 0 1297 2 1267
14 -19 7 -84 33 -145 57 l-110 43 -1095 5 -1095 5 -3 168 -2 167 -54 0 c-29 0
-56 -3 -59 -7z"/>
</g>
</svg>
